<svg width="640" height="640" viewBox="0 0 640 640" fill="none" xmlns="http://www.w3.org/2000/svg">
<g clip-path="url(#clip0_4_349)">
<rect width="640" height="640" fill="white"/>
<path d="M385.392 440.842C378.892 425.804 376.179 413.25 375.25 403.787C374.725 398.567 374.75 394.3 374.95 391.033C375.25 386.162 375.979 383.604 375.979 383.604L373.408 384.287C373.454 383.875 373.492 383.604 373.492 383.604L327.675 396.417L281.858 383.604C281.858 383.604 281.9 383.875 281.946 384.287L279.375 383.604C279.375 383.604 280.104 386.162 280.404 391.033C280.604 394.3 280.629 398.567 280.104 403.787C279.175 413.25 276.462 425.804 269.962 440.842C269.962 440.842 265.717 451.712 236.221 455.479C236.221 455.479 238.387 463.387 243.7 474.346C244.325 475.633 244.992 476.967 245.704 478.329C247.487 481.746 249.554 485.375 251.925 489.096C255.721 495.046 260.3 501.233 265.767 507.146C271.217 522.633 283.242 535.637 297.146 537.796C304.083 538.879 310.646 539.354 316.862 539.325C319.346 539.312 321.779 539.221 324.154 539.054C325.342 538.971 326.517 538.871 327.675 538.75C328.837 538.871 330.012 538.971 331.2 539.054C333.575 539.221 336.008 539.312 338.492 539.325C344.708 539.354 351.271 538.879 358.204 537.796C372.112 535.637 384.137 522.633 389.587 507.146C395.054 501.233 399.633 495.046 403.429 489.096C405.8 485.375 407.862 481.746 409.65 478.329C411.075 475.6 412.321 473.004 413.4 470.612C417.446 461.633 419.133 455.479 419.133 455.479C389.637 451.712 385.392 440.842 385.392 440.842Z" fill="#FFC998"/>
<path d="M578.9 689.254L496.021 606.379L488.938 830.167C440.146 853.5 385.521 866.584 327.854 866.584C269.854 866.584 214.9 853.375 165.896 829.796L164.979 800.625L158.813 606.379L147.896 617.296H86.8125C99.5625 558.546 126.271 498.046 184.729 467.167C205.979 455.958 237.354 453.212 247.271 452.583C249.146 452.504 250.854 453.504 251.608 455.212C253.021 458.421 255.729 464.171 259.771 471.125C260.354 471.546 260.771 472.212 260.854 472.962C272.692 493 294.854 521.75 327.813 530.796C360.771 521.75 382.896 493 394.771 472.962C394.854 472.212 395.271 471.546 395.854 471.125C399.896 464.171 402.604 458.421 404.021 455.212C404.771 453.504 406.479 452.504 408.313 452.583C418.271 453.212 449.604 455.958 470.896 467.167C554.313 511.254 573.105 615.671 578.9 689.254Z" fill="#145E68"/>
<path d="M303.867 577.962C303.867 577.962 352.255 676.079 411.601 729.429C411.601 729.429 339.784 706.833 303.867 577.962Z" fill="#112B5E"/>
<path d="M413.042 670.746C412.988 670.746 412.93 670.746 412.88 670.742C412.825 670.746 412.771 670.746 412.713 670.746C409.721 670.746 403.38 667.379 396.609 662.775C395.85 655.654 391.059 644.892 381.146 635.292L379.6 638.487C379.6 638.487 386 643.875 386.78 654.575C386.8 654.879 386.821 655.183 386.838 655.487C380.955 650.696 375.863 645.725 373.7 642.137C367.942 632.583 366.509 577.962 366.509 577.962H459.246C459.246 577.962 457.813 632.583 452.055 642.137C446.338 651.617 420.175 670.746 413.042 670.746Z" fill="#392571"/>
<path d="M375.25 403.787C374.725 398.566 374.875 394.3 375.075 391.033L373.167 387.371L327.742 399.479L282.313 387.371L280.404 391.033C280.604 394.3 280.629 398.566 280.104 403.787C286.267 413.787 301.446 432.891 327.675 432.954V432.958H327.805V432.954C354.034 432.891 369.084 413.787 375.25 403.787Z" fill="#DD6D4E"/>
<path d="M245.2 297.508C245.2 297.508 250.355 314.791 254.584 337.304C256.925 349.737 255.13 355.954 244.125 354.242C235.588 352.917 213.859 327.321 221.275 305.337C223.009 300.204 232.121 291.112 245.2 297.508Z" fill="#FFC998"/>
<path d="M234.8 311.462C240.829 318.371 242.233 326.562 242.717 335.425C242.796 336.867 244.733 336.796 244.908 335.425C246.046 326.362 242.538 316.529 236.338 309.925C235.371 308.896 233.888 310.417 234.8 311.462Z" fill="#DD6D4E"/>
<path d="M234.292 320.204C238.183 320.821 239.833 323.55 241.971 326.471C242.717 327.496 244.338 326.912 244.054 325.596C243.138 321.396 238.779 318.112 234.592 317.996C233.354 317.962 233.021 320.004 234.292 320.204Z" fill="#DD6D4E"/>
<path d="M411.905 354.254C411.38 354.329 410.9 354.379 410.425 354.429C400.759 355.358 399.2 349.158 401.438 337.308C401.738 335.704 402.038 334.146 402.342 332.592C406.384 312.429 410.825 297.517 410.825 297.517C423.905 291.117 433.017 300.204 434.75 305.35C442.18 327.317 420.442 352.925 411.905 354.254Z" fill="#FFC998"/>
<path d="M419.692 309.925C413.492 316.525 409.983 326.367 411.125 335.425C411.296 336.792 413.233 336.867 413.313 335.425C413.796 326.562 415.192 318.383 421.229 311.462C422.142 310.417 420.658 308.896 419.692 309.925Z" fill="#DD6D4E"/>
<path d="M421.442 317.996C417.25 318.112 412.892 321.396 411.979 325.596C411.692 326.904 413.308 327.5 414.058 326.471C416.196 323.55 417.846 320.821 421.737 320.204C423 320.004 422.687 317.962 421.442 317.996Z" fill="#DD6D4E"/>
<path d="M408.626 354.521C402.771 354.521 400.53 351.283 400.538 345.262C400.542 342.996 400.867 340.337 401.438 337.308C401.738 335.704 402.038 334.146 402.342 332.592L404.296 333.392C404.296 333.392 404.401 353.904 410.426 354.429C409.792 354.492 409.192 354.521 408.626 354.521Z" fill="#F37D5C"/>
<path d="M247.396 354.521C246.833 354.521 246.233 354.492 245.6 354.429C246.233 354.492 246.838 354.521 247.404 354.521C247.529 354.521 247.654 354.521 247.775 354.517C247.65 354.521 247.525 354.521 247.396 354.521ZM255.483 345.212C255.475 343.187 255.213 340.846 254.75 338.208C255.217 340.846 255.475 343.187 255.483 345.212ZM254.475 336.721C254.213 335.321 253.942 333.946 253.671 332.596L253.683 332.592C253.946 333.954 254.213 335.321 254.475 336.721Z" fill="#EFA08B"/>
<path d="M247.404 354.521C246.838 354.521 246.238 354.492 245.604 354.429C251.625 353.896 251.725 333.392 251.725 333.392L253.671 332.596C253.942 333.946 254.213 335.321 254.475 336.721C254.513 336.917 254.55 337.112 254.588 337.308C254.642 337.612 254.7 337.912 254.75 338.208C255.213 340.846 255.475 343.187 255.484 345.212C255.505 351.133 253.363 354.379 247.775 354.517C247.654 354.521 247.529 354.521 247.404 354.521Z" fill="#F37D5C"/>
<path d="M425.2 240.637H230.421C230.421 240.637 238.717 268.829 244.417 300.65C253.925 353.683 256.154 421.671 327.808 421.671C400.192 421.671 401.738 353.85 411.15 300.729C416.725 269.275 425.2 240.637 425.2 240.637Z" fill="#FFC998"/>
<path d="M429.692 216.858C412.429 183.279 396.529 240.079 396.529 240.079L397.517 242.546L389.496 244.637C400.342 249.037 411.15 300.729 411.15 300.729L418.879 296L418.875 295.971L418.896 296.016C418.896 296.016 446.95 250.437 429.692 216.858Z" fill="#002334"/>
<path d="M272.363 293.204C280.9 286.841 294.379 284.729 303.484 289.691C304.271 290.121 307.521 291.008 308.238 288.083C308.663 286.354 305.913 284.366 305.217 283.883C295.388 277.121 277.054 281.183 269.704 290.258C269.204 290.875 268.675 293.041 269.563 293.671C270.25 294.162 271.792 293.629 272.363 293.204Z" fill="#002334"/>
<path d="M382.583 293.204C374.046 286.841 360.563 284.729 351.463 289.691C350.675 290.121 347.425 291.008 346.708 288.083C346.283 286.354 349.033 284.366 349.729 283.883C359.558 277.121 377.892 281.183 385.242 290.258C385.742 290.875 386.271 293.041 385.384 293.671C384.696 294.162 383.154 293.629 382.583 293.204Z" fill="#002334"/>
<path d="M295.934 305.304C295.904 309.846 293.325 313.508 290.171 313.492C287.017 313.471 284.488 309.775 284.517 305.233C284.546 300.692 287.125 297.029 290.275 297.05C293.429 297.067 295.963 300.767 295.934 305.304Z" fill="#002334"/>
<path d="M359.013 305.304C359.042 309.846 361.621 313.508 364.775 313.492C367.925 313.471 370.459 309.775 370.43 305.233C370.4 300.692 367.821 297.029 364.667 297.05C361.517 297.067 358.984 300.767 359.013 305.304Z" fill="#002334"/>
<path d="M318.613 350.125C318.708 350.304 321.167 353.712 327.808 353.696C334.454 353.712 336.967 350.312 337.063 350.133C337.354 349.708 337.246 349.121 336.821 348.829C336.392 348.533 335.804 348.642 335.513 349.071C335.363 349.246 333.417 351.8 327.808 351.817C324.813 351.812 322.892 351.075 321.721 350.371C321.133 350.021 320.733 349.675 320.488 349.429L320.229 349.146L320.179 349.083C319.892 348.654 319.304 348.533 318.875 348.821C318.442 349.108 318.325 349.692 318.613 350.125Z" fill="#DD6D4E"/>
<path d="M172.454 474.408C172.454 474.408 112.3 505.246 50.4917 670.742C50.4917 670.742 123.054 705.738 162.3 707.071L172.454 474.408Z" fill="#145E68"/>
<path d="M483.184 474.408C483.184 474.408 543.338 505.246 605.142 670.742C605.142 670.742 532.084 705.613 492.838 706.946L483.184 474.408Z" fill="#145E68"/>
<path d="M354.984 375.779C349.617 378.604 338.729 380.683 327.842 380.683C316.942 380.683 306.042 378.608 300.667 375.779L298.25 374.808C298.096 375.091 299.954 376.875 300.642 377.437C305.929 381.783 317.546 384.754 327.809 384.762H327.842C338.104 384.754 349.721 381.783 355.009 377.437C355.696 376.875 357.554 375.091 357.396 374.808L354.984 375.779Z" fill="#C76047"/>
<path d="M246.355 192.796C246.355 192.796 236.371 181.616 243.205 163.325C248.325 149.608 264.709 141.833 281.659 148.325C301.142 155.791 326.188 141.45 345.98 153.254C356.901 159.766 368.584 165.587 381.396 167.837C410.042 172.866 427.23 154.816 446.496 186.325C465.105 216.766 428.734 264.712 370.43 263.15C312.126 261.587 284.417 236.504 261.813 245.921C239.209 255.337 235.571 213.15 235.571 213.15L246.355 192.796Z" fill="#002334"/>
<path d="M261.033 243.241L246.354 192.796C246.354 192.796 209.496 180.266 209.441 213.325C209.412 230.683 221.558 237.608 225.666 249.608C213.687 289.567 236.687 295.921 236.687 295.921L244.416 300.65C244.416 300.65 255.225 248.958 266.071 244.558L261.033 243.241Z" fill="#002334"/>
<path d="M483.184 551.517C483.184 551.517 485.763 590.358 488.342 629.204C489.538 648.625 490.734 668.046 491.63 682.613C492.021 689.908 492.346 695.988 492.571 700.242C492.742 704.508 492.838 706.946 492.838 706.946C492.838 706.946 492.451 704.538 491.763 700.325C491.176 696.104 490.126 690.088 489.292 682.829C488.417 675.571 487.355 667.104 486.484 658.008C485.592 648.913 484.859 639.196 484.188 629.471C483.626 619.737 483.092 610.004 482.842 600.867C482.521 591.733 482.567 583.196 482.505 575.887C482.471 568.575 482.746 562.479 482.846 558.217C483.005 553.95 483.184 551.517 483.184 551.517Z" fill="#112B5E"/>
<path d="M171.758 551.517C171.758 551.517 171.938 553.95 172.096 558.217C172.196 562.479 172.471 568.575 172.438 575.887C172.375 583.196 172.421 591.733 172.096 600.867C171.85 610.004 171.317 619.737 170.754 629.471C170.083 639.196 169.346 648.913 168.458 658.008C167.583 667.104 166.525 675.571 165.646 682.829C164.813 690.088 163.767 696.104 163.175 700.325C162.492 704.538 162.1 706.946 162.1 706.946C162.1 706.946 162.196 704.508 162.367 700.242C162.596 695.988 162.921 689.908 163.308 682.613C164.208 668.046 165.4 648.625 166.596 629.204C169.175 590.358 171.758 551.517 171.758 551.517Z" fill="#112B5E"/>
<path d="M258.08 245.283C289.967 241.146 312.746 268.304 342.88 273.371C363.063 276.767 392.788 274.367 402.23 253.158C403.846 249.529 398.484 246.358 396.855 250.017C381.809 283.817 330.08 264.654 307.567 252.383C291.713 243.742 276.525 236.662 258.08 239.058C254.159 239.567 254.109 245.8 258.08 245.283Z" fill="#002334"/>
<path d="M255.471 177.954C241.442 173.6 222.625 171.65 212.787 184.941C204.708 195.858 204.9 213.845 214.379 223.783C217.15 226.687 221.55 222.279 218.783 219.379C210.75 210.962 211.587 194.308 219.846 186.275C228.379 177.97 243.679 180.808 253.817 183.958C257.65 185.15 259.292 179.141 255.471 177.954Z" fill="#002334"/>
<path d="M359.99 332.769C341.344 332.769 342.031 327.552 328.081 327.552C314.136 327.552 314.823 332.769 296.173 332.769C270.644 332.769 249.411 343.485 249.411 343.485C264.861 431.565 328.081 424.619 328.081 424.619C328.081 424.619 391.303 431.565 406.753 343.485C406.753 343.485 385.519 332.769 359.99 332.769Z" fill="#6EC8BB"/>
<path d="M243.002 301.044C243.01 301.177 243.557 312.281 249.786 345.91C249.982 346.969 251.002 347.669 252.061 347.473C253.119 347.277 253.815 346.26 253.619 345.202C250.515 328.444 248.831 317.323 247.927 310.411C247.473 306.952 247.215 304.548 247.069 303.015C246.998 302.248 246.952 301.702 246.927 301.348L246.898 300.856C246.844 299.781 245.931 298.952 244.856 299.002C243.781 299.056 242.952 299.969 243.002 301.044Z" fill="#6EC8BB"/>
<path d="M409.74 300.877L409.694 301.377C409.449 303.852 408.111 315.86 402.674 345.202C402.478 346.26 403.173 347.277 404.232 347.473C405.29 347.669 406.307 346.969 406.507 345.91C412.736 312.294 413.615 301.29 413.624 301.185C413.711 300.115 412.911 299.173 411.836 299.09C410.765 299.002 409.824 299.802 409.74 300.877Z" fill="#6EC8BB"/>
</g>
<defs>
<clipPath id="clip0_4_349">
<rect width="640" height="640" fill="white"/>
</clipPath>
</defs>
</svg>
